<svg xmlns="http://www.w3.org/2000/svg" width="360" height="360"><path d="M0 0h360v360H0V0z" fill="#DB6E3C"/><path d="M214.617 100.926 217 103l2.063 1.64c4.599 3.821 8.547 7.787 10.937 13.36v4h2c4.177 8.045 8.294 16.044 10 25l1 2.75c1.078 3.502 1.455 6.757 1.754 10.395.056 1.868.056 1.868 1.246 2.855 1.225 7.894 1.053 15.852.938 23.813-.08 12.253.128 23.778 5.062 35.187 2.703 6.539 3.225 10.987 2 18l-4-1v3h2v4l3-1-1 7h-2c.472 4.248 2.967 6.2 6 9l-1 3 2 1-2 1 .5 2.938C258 272 258 272 258 273c-1.563 1.125-1.563 1.125-4 2-4.378-.733-6.491-1.441-9.512-4.758a107.072 107.072 0 0 1-2.175-3.367l-1.155-1.76A99.263 99.263 0 0 1 234 252c10 20.795 10 20.795 10 27h-2v-2c-3.895-.21-3.895-.21-7 1l1 2.313c1 2.687 1 2.687 1 5.687l-3-1v-4h-2l1-5c-3.488 2.21-4.73 4.086-6 8-1.666.043-3.334.04-5 0l-1-1-2 2-2-4h-5l-1 2h-4v2l2 1-3.665-.003c-4.54.003-9.08.046-13.62.1-1.955.019-3.91.026-5.865.023-11.719-.012-20.872.136-30.85 6.88a4851.22 4851.22 0 0 1-4.438 2.75l-1.89 1.215c-3.722 2.304-7.29 3.911-11.672 3.035-3.887-4.14-6.529-8.414-9-13.5l-1.038-2.117c-4.835-10.062-8.096-20.17-10.282-31.113-1.385-6.66-3.048-12.492-6.68-18.27-.364-1.66-.7-3.327-1-5l-1.063-2.125C107 226 107 226 107 223h-2a935.14 935.14 0 0 1-3.938-7.563l-1.13-2.134c-2.256-4.41-3.84-8.25-3.932-13.303 1.426-2.11 1.426-2.11 3-4 .36-2.589.36-2.589.188-5.25l-.083-2.703L99 186l-3-1 1-1c.063-2.257.06-4.516.027-6.773l-.037-4.188a1696.78 1696.78 0 0 0-.086-6.623 969.38 969.38 0 0 1-.064-6.377l-.051-3.869C97 153 97 153 99 150l.688-3.813C102.442 133.135 111.371 118.948 122 111l1.727-1.398c22.637-17.925 65.773-27.158 90.89-8.676z" fill="#F8D1C0"/><path d="M214.617 100.926 217 103l2.063 1.64c4.599 3.821 8.547 7.787 10.937 13.36v4h2c4.177 8.045 8.294 16.044 10 25l1 2.75c1.078 3.502 1.455 6.757 1.754 10.395.056 1.868.056 1.868 1.246 2.855 1.225 7.894 1.053 15.852.938 23.813-.08 12.253.128 23.778 5.062 35.187 2.703 6.539 3.225 10.987 2 18l-4-1v3h2v4l3-1-1 7h-2c.472 4.248 2.967 6.2 6 9l-1 3 2 1-2 1 .5 2.938C258 272 258 272 258 273c-1.563 1.125-1.563 1.125-4 2-4.378-.733-6.491-1.441-9.512-4.758a107.072 107.072 0 0 1-2.175-3.367l-1.155-1.76A99.263 99.263 0 0 1 234 252c10 20.795 10 20.795 10 27h-2v-2c-3.895-.21-3.895-.21-7 1l1 2.313c1 2.687 1 2.687 1 5.687l-3-1v-4h-2l1-5c-3.488 2.21-4.73 4.086-6 8-1.666.043-3.334.04-5 0l-1-1-2 2-2-6 2-1 2 1v-2l-2-1 4-3 2.188-1.688C227 270 227 270 228 270c-.575-3.93-.575-3.93-3-7l2-2 3 2c.81-2.915 1.218-4.461.063-7.313L229 254l-2 1-.375-3.438L226 248l-2-1v-5l3 1v-2l-8 1v2l2 1-3 1c-.625-1.875-.625-1.875-1-4l2-2c1.245-2.49.777-3.41 0-6h-2l-1 2h-2v3l-3 1-1-4-3 2 1 2h-3v-3l-1.898-.262c-2.47-.424-4.746-.88-7.102-1.738-1.563-2.625-1.563-2.625-2-5l9-1 1 2c3.03.658 3.03.658 6 1l1-2 1-2h-3l-1 2c-2.834-3.203-3.52-5.78-4-10h-2l-2 2-1-5h-2c-.688-2.313-.688-2.313-1-5 1.438-1.813 1.438-1.813 3-3l3 1v5l1.875-1.5C206 212 206 212 208 212l2 3 2-1v-3l-2-1 1.188-2.75L212 204c-1.372-2.19-1.372-2.19-3-4l1-3 6 1-1 3h2l2-4v2c2.972-1.125 5.334-2.223 8-4v-2l-4 1v-4h-2l-.621-2.117-.816-2.758-.81-2.742c-.68-2.366-.68-2.366-1.753-4.383l1-2h-2l.25-2.313L216 171a166.628 166.628 0 0 0-4-3c-.75-2.688-.75-2.688-1-5h-4l1 3-3-1-1-2v15l6 1v2h-2l-2 7-4-3-2 4h-2c-.188-2.25-.188-2.25 0-5l1.488-1.652c2.198-3.414 1.958-6.732 1.887-10.66l-.029-2.428c-.19-7.649-1.435-14.851-3.346-22.26l-.552-2.155c-3.18-12.59-3.18-12.59-9.448-23.845l-2-1a222.359 222.359 0 0 0-.125 4l-.07 2.25c.21 2.963.954 5.63 1.71 8.493.9 4.189 1.003 8.424 1.173 12.695l.142 2.697c.256 5.748-.058 11.163-.83 16.865l-3 1-.227-3.305C183.307 146.755 177.4 131.776 169 116a452.887 452.887 0 0 1-2-4h-2l-1-3c-6.98.27-10.26 2.115-15.313 6.813l-1.837 1.619c-2.47 2.21-4.613 4.23-6.518 6.955L139 126h-4c.276-6.856 1.305-11.226 5-17 .76-2.27.76-2.27 1-4-5.652 2.992-9.857 6.063-13.688 11.313L126 118h-2l-1 3c-1.663 1.338-3.33 2.67-5 4a92.136 92.136 0 0 0-3.938 5.188l-2.074 2.921a403.074 403.074 0 0 0-5.238 7.828c-1.992 3.037-4.01 5.64-6.75 8.063-.451-5.3 1.039-9.018 3.438-13.625l1.079-2.11c4.481-8.501 9.72-16.445 17.483-22.265l1.727-1.399c22.639-17.922 65.772-27.158 90.89-8.675zM213 160v6c2.354.688 2.354.688 5 1l3-2-1-7c-3.106 0-4.353.54-7 2zm-10 18 1 2z" fill="#EA9F7E"/><path d="m220 159 1 6c-4.625 2.125-4.625 2.125-8 1v-6c3.625-2.125 3.625-2.125 7-1zm-17 3 5 4-2-4c2.313.125 2.313.125 5 1 1.813 3.063 1.813 3.063 3 6l2-1c.981 3.053.981 4.947 0 8h2l.586 6.152L219 184l2 1v5h2l1 3h3l1-4 1 8-2 1-1-2-1.188 1.5c-2.363 1.956-3.826 1.742-6.812 1.5l-1 2h-2l-1-3-2 2v-3l-2 1c1.398 3.545 1.398 3.545 3 7l-1.063 2.313c-1.24 2.698-1.24 2.698-.062 5.5L213 215l-4 1-1-4-1.875 1.5C204 215 204 215 202 215l-1-5-4 2c1.289 2.875 2.533 5.007 5 7 2.103.714 2.103.714 4 1l-.125 3.375c-.286 3.669-.286 3.669 2.125 5.625 2.108-.319 2.108-.319 4-1v2l2 1-10 1-1-3-8 2 1 4 3.375.438C203 236 203 236 205 237v3l2-1v-3l4-1 1 4 2-4 2 1 1-3 3 1 1 6-3 2 1 2v-2c2.892-.826 4.887-1 8-1v2h-2c.672 3.806 1.727 7.352 3 11l2-3c.39 1.433.762 2.872 1.125 4.313l.633 2.425C232 260 232 260 230 263h-4l2 1c.407 2.322.744 4.657 1 7l-4 1v2l-4 1v4l-1.934.367-2.504.508-2.496.492L212 281l-1 2h-4v2l2 1-3.665-.003c-4.54.003-9.08.046-13.62.1-1.955.019-3.91.026-5.865.023-11.719-.012-20.872.136-30.85 6.88a4851.22 4851.22 0 0 1-4.438 2.75l-1.89 1.215c-3.722 2.304-7.29 3.911-11.672 3.035-3.887-4.14-6.529-8.414-9-13.5l-1.038-2.117c-4.835-10.062-8.096-20.17-10.282-31.113-1.385-6.66-3.048-12.492-6.68-18.27-.364-1.66-.7-3.327-1-5l-1.063-2.125C107 226 107 226 107 223h-2a935.14 935.14 0 0 1-3.938-7.563l-1.13-2.134C97.67 208.88 96.202 205.058 96 200c1.938-2.438 1.938-2.438 4-4l1 3 2.375-1.5C106 196 106 196 108 196l.113 2.09c.4 5.72 1.195 10.616 3.364 15.937C112 216 112 216 111 220l-10-18h-3c1.059 3.403 2.009 6.014 4 9v3h2c1.2 1.828 2.31 3.715 3.375 5.625l1.883 3.309L111 226c2.54 4.556 2.54 4.556 7 7v-2l3.34.14c14.144.41 27.094-1.216 39.66-8.14l2 1c-4.534 3.333-8.712 5.198-14.125 6.688l-2.33.65c-8.463 2.18-16.951 2.477-25.654 2.536-2.117.061-2.117.061-4.891 1.126v4h2v2c7.457.486 14.016-1.559 20.75-4.688 3.363-1.357 5.664-1.574 9.25-1.312-2.5 2.978-5.047 3.945-8.688 5.188l-3.011 1.042L134 242v1c13.187.984 13.187.984 25-4l1.012-2.05c.988-1.95.988-1.95 4.425-3.387 3.943-1.73 4.869-2.704 6.563-6.563l.227-1.781c1.201-3.447 3.773-5.715 6.273-8.281 3.988-3.971 3.988-3.971 6.5-8.938h2l.375-3.063c.846-5.329 2.082-10.17 4.625-14.937 1.866-4.062 2.546-7.89 3.125-12.313l.508-3.8L195 171c2 1 2 1 2.922 3.293 2.73 9.543 2.73 9.543.078 14.707l1.75-2c2.25-2 2.25-2 6.25-2l.938-1.938C208 181 208 181 209 180l-5-2-1-16z" fill="#EDAA8C"/><path d="M360 291v66c-7.259-.726-12.247-1.564-18.75-4.063-12.55-4.403-21.614-4.156-33.558 1.545-6.386 3.005-11.339 4.029-18.169 1.659-7.37-3.332-14.564-8.37-19.574-14.754-3.552-4.35-8.559-6.098-13.887-7.512L253 333c-1.564-3.129-1.356-5.556-1-9 3.195-3.046 6.342-4.75 10.438-6.313 4.597-1.824 8.936-3.882 13.312-6.187 15.776-8.067 33.166-10.877 50.574-13.238 9.344-1.273 17.858-2.955 26.707-6.274C356 291 356 291 360 291z" fill="#4A3329"/><path d="m160.75 93.938 2.422.027L165 94l-2 1c1.415.65 2.832 1.295 4.25 1.938l2.39 1.09c3.102 1.281 3.102 1.281 6.36 1.972l3-2h3l1-2 5 3-2 5 3 2 3-2h4v2l4 1-2 7 2-1-1-4h2v-3h2v2h2v6l1-2h2l-1 6h5v-2h-3l-1-8 3 2 2-3h4l1-2c.625 1.875.625 1.875 1 4l-2 2h-4l-1 4 8-1v5h-3v2l2 1-2 4h-2l-1-3-2 2v-4l-4-1-1 3-1 2 3 1c-2.75.917-4.36 1.109-7.188 1.063L198 127l1 3 3 1 1-3h2v3l2 1v3h2l1-3 3 8-4 1-1-4c-3.118.646-3.118.646-4 3h-2v-5h-5l-.813-2.188c-2.205-5.223-4.942-10.19-10.187-12.812a222.359 222.359 0 0 0-.125 4l-.07 2.25c.21 2.963.954 5.63 1.71 8.493.9 4.189 1.003 8.424 1.173 12.695l.142 2.697c.256 5.748-.058 11.163-.83 16.865l-3 1-.227-3.305C183.307 146.755 177.4 131.776 169 116a452.887 452.887 0 0 1-2-4h-2l-1-3c-6.98.27-10.26 2.115-15.313 6.813l-1.837 1.619c-2.47 2.21-4.613 4.23-6.518 6.955-.44.532-.88 1.064-1.332 1.613h-4c.276-6.856 1.305-11.226 5-17 .76-2.27.76-2.27 1-4-5.652 2.992-9.857 6.063-13.688 11.313L126 118h-2l-1 3c-1.663 1.338-3.33 2.67-5 4a92.136 92.136 0 0 0-3.938 5.188l-2.074 2.921a403.074 403.074 0 0 0-5.238 7.828c-1.992 3.037-4.01 5.64-6.75 8.063-.451-5.3 1.039-9.018 3.438-13.625l1.079-2.11c4.481-8.501 9.72-16.445 17.483-22.265l1.7-1.394c5.43-4.335 11.207-7.141 17.55-9.918l2.969-1.338c5.654-2.523 10.28-4.504 16.531-4.412z" fill="#EEAE91"/><path d="M214.617 100.926 217 103l2.063 1.64c4.599 3.821 8.547 7.787 10.937 13.36v4h2c4.177 8.045 8.294 16.044 10 25l1 2.75c1.078 3.502 1.455 6.757 1.754 10.395.056 1.868.056 1.868 1.246 2.855 1.157 7.617 1.12 15.317 1 23-6.625 1.25-6.625 1.25-10-1l-1 3-2-1c.75-2.938.75-2.938 2-6 2.125-.875 2.125-.875 4-1-1.638-3.51-3.031-6.455-6-9h2l-2-7 2-2c.398-1.988.738-3.99 1-6l-2.125 1.063c-3.378 1.1-5.456.732-8.875-.063l-1-6-3-1c.141-1.625.288-3.25.438-4.875.08-.905.162-1.81.246-2.742C223 140 223 140 224 138h-4v-4h-5l-1 3 3 1v2l-5 2v2h-3l-1-2-2 4v-2c-3.653 1.25-4.78 1.671-7 5l-.503-1.665c-.763-2.51-1.536-5.016-2.31-7.523l-.79-2.619c-1.135-3.655-2.175-6.825-4.159-10.119L190 125l1-3c5.556 8.262 5.556 8.262 6 13l5-1c1.245 2.49.777 3.41 0 6h2l1-3h3l1 4 3-2v-3c-2.075-1.224-2.075-1.224-5-1v-3l-3-1 1-3-1.25 1.563L202 131c-2.188-.313-2.188-.313-4-1l-1-4h10l-2-4h2l1-2c5.75 1.75 5.75 1.75 8 4l-1 2h2c.934-3.01 1.044-3.867 0-7l2-2 1-3-2.313.5C215 115 215 115 212 115c.188-1.875.188-1.875 1-4 2.563-1.25 2.563-1.25 5-2v-3c-2.445.188-2.445.188-5 1-1.36 1.968-1.36 1.968-2 4h-2l1 3-1 2h3v2h-5l1-6-1 2h-2c-1.125-3.75-1.125-3.75 0-6h-2v-2h-2v3h-2v3l2 1-3 1c-.043-2-.04-4 0-6l1-1-3-1v-2c-2.97.342-2.97.342-6 1l-1 2-4-4 3-4c-2.056-1.428-2.056-1.428-5-2-1.823.894-1.823.894-3.688 2.125-2.795 1.614-3.79 2.003-6.98 1.223a94.227 94.227 0 0 1-5.23-2.43L165 97l-2 1v-3l-3-2c16.496-2.75 40.688-2.324 54.617 7.926zM230 158l3 1-1 2-2-3z" fill="#E99C79"/><path d="M254 229c2.604 1.302 2.772 2.405 3.875 5.063a124.737 124.737 0 0 0 5.39 11.113C264 247 264 247 264 251l-4 1 4 4 1-2h2c2 4.75 2 4.75 2 7l1.313 1.688c4.445 6.09 5.258 11.952 5.687 19.312l-1.871.297C265.835 283.76 259.175 286.65 252 291h-2v-2h-3v2c-7.211-.428-14.29-1.014-21.438-2.063-6.916-.963-13.77-1.124-20.75-1.125l-3.007-.002c-6.465.03-6.465.03-12.805 1.19l-1 2 2-1c6.399-.465 6.399-.465 8.938 1.5L200 293l-1 2a94.836 94.836 0 0 1-7.25 1.625l-2.027.406c-3.62.697-7.038 1.126-10.723.969v-2h-3l-1 3c-2.72 1.016-5.416 1.162-8.3 1.281l-2.464.114-2.548.105c-4.586.192-9.063.405-13.606 1.094C145 302 145 302 142 301l1-3c1.658-.762 3.323-1.513 5.021-2.179 3.246-1.347 6.209-3.161 9.229-4.946 8.431-4.963 8.431-4.963 13.762-5.08l2.427-.06 2.604-.051 2.678-.063c2.822-.066 5.644-.125 8.466-.183l5.74-.131c4.691-.107 9.382-.209 14.073-.307v-2h4l1-3c4.554-.37 4.554-.37 6.813 1.5L220 283l2-1v2h5l.75-2.875c1.25-3.125 1.25-3.125 3.375-4.5L233 276l1 3h-2v2h2l.375 1.938L235 285l2 1-2-8 5-3v2h2v2h2c-4.324-12.936-4.324-12.936-10.215-25.215L233 252l1-2 1.285 2.492c2.908 5.535 5.87 11.01 9.278 16.258.516.8 1.033 1.598 1.566 2.422 2.507 2.449 4.428 2.625 7.871 2.828 2.157-.796 2.157-.796 2.688-2.813.45-2.17.45-2.17-.188-4.187-.5-2-.5-2 .063-4 .63-2.054.63-2.054-.313-4.188-1.201-2.13-1.201-2.13-4.25-2.812.875-7.75.875-7.75 2-10h-2v-4h-2v-3h3l1-10z" fill="#E18358"/><path d="M245 189h1l.228 2.168c.35 3.279.717 6.555 1.084 9.832l.358 3.41c.724 6.35 1.784 11.725 4.33 17.59 2.652 6.557 3.229 10.962 2 18l-4-1v3h2v4l3-1-1 7h-2c.472 4.248 2.967 6.2 6 9l-1 3 2 1-2 1 .5 2.938C258 272 258 272 258 273c-1.563 1.125-1.563 1.125-4 2-4.378-.733-6.491-1.441-9.512-4.758a107.072 107.072 0 0 1-2.175-3.367l-1.155-1.76A99.263 99.263 0 0 1 234 252c10 20.795 10 20.795 10 27h-2v-2c-3.895-.21-3.895-.21-7 1l1 2.313c1 2.687 1 2.687 1 5.687l-3-1v-4h-2l1-5c-3.488 2.21-4.73 4.086-6 8-1.666.043-3.334.04-5 0l-1-1-2 2-2-6 2-1 2 1v-2l-2-1 4-3 2.188-1.688C227 270 227 270 228 270c-.575-3.93-.575-3.93-3-7l2-2 3 2c.81-2.915 1.218-4.461.063-7.313L229 254l-2 1-.375-3.438L226 248l-2-1v-5l3 1v-2.25c0-7.25 0-7.25 2-10.75l5 1-2-2c0-3.61.96-6.558 2-10h2v3l5-2-2-1c1.25-3.653 1.671-4.78 5-7-1.309-3.122-1.309-3.122-4-5v-5h2v2h2l-1-5h-2c-.188-2.375-.188-2.375 0-5l3-2 1-3z" fill="#E6936E"/><path d="M170.797 246.49c3.028.482 5.915.695 8.976.791l3.25.114 3.352.105c19.774.627 19.774.627 23 3.937 3.842 8.423 4.516 17.455 3.188 26.563-2.61 3.341-6.5 3.47-10.563 4-3.291.024-6.486-.29-9.75-.688l-2.496-.24c-4.637-.519-7.885-1.284-11.754-4.072l-2.375-1.188c-3.127-2.159-5.275-4.649-7.71-7.546-2.713-3.21-5.57-6.288-8.411-9.383C158 257 158 257 158 255l-1.812-.625c-2.998-1.884-3.802-4.186-5.188-7.375 6.557-1.14 13.206-1.666 19.797-.51z" fill="#F8D2C1"/><path d="M126 247h20l2.5 4.625L152 258l1.863 3.46c3.856 7.053 7.995 13.222 13.254 19.333C169 283 169 283 171 286l-1.95.594c-7.017 2.322-12.945 5.59-19.105 9.601-4.238 2.597-7.9 4.469-12.945 3.805-8.844-7.03-10.01-25.452-11.75-35.938l-.424-2.476c-.864-5.474-.588-9.299 1.174-14.586z" fill="#F8D2C0"/><path d="m99 196 2 3 2.375-1.5C106 196 106 196 108 196l.113 2.09c.4 5.72 1.195 10.616 3.364 15.937C112 216 112 216 111 220l-10-18h-3c1.059 3.403 2.009 6.014 4 9v3h2c1.2 1.828 2.31 3.715 3.375 5.625l1.883 3.309L111 226c2.54 4.556 2.54 4.556 7 7v-2l3.34.14c14.144.41 27.094-1.216 39.66-8.14l2 1c-4.534 3.333-8.712 5.198-14.125 6.688l-2.33.65c-8.463 2.18-16.951 2.477-25.654 2.536-2.117.061-2.117.061-4.891 1.126v4h2v2c7.457.486 14.016-1.559 20.75-4.688 3.363-1.357 5.664-1.574 9.25-1.312-2.5 2.978-5.047 3.945-8.688 5.188l-3.011 1.042L134 242v1c13.187.984 13.187.984 25-4l1.012-2.059C161 235 161 235 164.437 233.687 168 233 168 233 171 234c2.816.205 5.619.372 8.438.5 1.52.07 3.039.142 4.558.219l2.037.092c2.067.199 3.967.638 5.967 1.189l1-2v3l-2 1v2h-3v-2l-4 1 1 4c-2.763.597-5.16 1-8 1v-2h-2v-3h4l1-2-15 1 2 1v3l1 2c1.986.406 3.99.73 6 1 1.668.326 3.335.657 5 1v1l-1.833-.016c-2.764-.02-5.528-.034-8.292-.047l-2.883-.025c-4.782-.016-9.29.083-13.992 1.088l2 3-.578 2.8c-.553 4.195.616 5.84 2.828 9.387l1.89 3.106c1.512 2.2 2.94 3.89 4.86 5.707l.875 1.813c2.194 4.266 5.155 7.54 9.125 10.187 2.676.28 2.676.28 5.563.188l2.94-.02C184 284.161 184 284.161 186 283v-2c2.375-.125 2.375-.125 5 0l2 2c6.488 1.795 11.715.012 18-2v2h-4v2l2 1c-5.228.274-10.452.472-15.686.604-1.776.055-3.55.13-5.324.226-15.492.815-15.492.815-20.3-3.106-2.566-2.776-4.658-5.542-6.69-8.724l-1.386-1.898C154.108 265.418 150.111 256.48 146 248l-20-1c-.963 6.452-.963 6.452-.582 12.445l.358 2.305.412 2.375.413 2.497c1.423 8.185 3.231 16.442 6.583 24.073C134 293 134 293 133 296c-7.26-13.858-13.346-27.368-16.355-42.8-1.338-6.642-3.03-12.449-6.645-18.2-.364-1.66-.7-3.327-1-5l-1.063-2.125C107 226 107 226 107 223h-2a935.14 935.14 0 0 1-3.938-7.563l-1.13-2.134C97.665 208.872 96.253 205.062 96 200c1.438-2.438 1.438-2.438 3-4zm83 47h2l-1 3-1-3z" fill="#EAA282"/><path d="m347 310 6 1-1 3 7 2-1 4h-2v2l4-1v36c-7.208-.72-12.414-1.559-18.938-4-6.698-2.384-12.886-3.968-20.062-4l2-1-.5-2.313C322 343 322 343 322 340l-5 1-1-6 3.25.563c3.154.367 4.848.482 7.75-.563l-1.438-1.188c-1.915-2.221-2.039-3.972-2.562-6.812l-2-1h2l1-2 1 4h2v4h3l1 5h-3v2h3l1 5 2-3 5 1 2 6v-5l9-5-1-4-5 7c-3-1-3-1-5-4l-2 2-.75-1.875c-1.456-2.476-2.628-3.076-5.25-4.125v-2l-3-1 1-2 1 1 1-2-2-1h4v-2l-4 1-1-4 4-2 1 4 4 1 1-5h3c-1.313 3.438-1.313 3.438-3 7l-3 1v2h3l1 2 1-2c3.063-.625 3.063-.625 6-1l-1-3c2.986-1.991 5.597-2.941 9-4v-4l-7-1v-6z" fill="#4D3429"/><path d="M159.941 130.363c4.356 1.347 6.711 4.917 9.059 8.637 3.333 6.608 4.417 14.1 2.344 21.27-2.29 5.318-5.01 7.56-10.344 9.73-4.144.421-7.65.657-11-2-4.88-7.177-6.683-13.89-5.54-22.54 1.134-5.172 3.263-9.042 6.79-12.96 2.934-1.6 5.32-2.322 8.691-2.137z" fill="#3D312C"/><path d="m228 117 2 1v4h2c4.177 8.045 8.294 16.044 10 25l1 2.75c1.078 3.502 1.455 6.757 1.754 10.395.056 1.868.056 1.868 1.246 2.855 1.157 7.617 1.12 15.317 1 23-6.625 1.25-6.625 1.25-10-1l-1 3-2-1c.75-2.938.75-2.938 2-6 2.125-.875 2.125-.875 4-1-1.638-3.51-3.031-6.455-6-9h2l-2-7 2-2c.398-1.988.738-3.99 1-6l-2.125 1.063c-3.378 1.1-5.456.732-8.875-.063l-1-6-3-1c.141-1.625.288-3.25.438-4.875.08-.905.162-1.81.246-2.742C223 140 223 140 224 138h-4v-8l-2-1h3l-1-3 2.375-.75c2.948-1.404 3.527-2.257 4.625-5.25v3h2l-1-6zm2 41 3 1-1 2-2-3z" fill="#E38A62"/><path d="M188 194h2l-.621 2.047-.816 2.703-.81 2.672A140.549 140.549 0 0 0 186 208h-2l-.156 1.633c-1.445 4.053-4.877 6.797-7.895 9.77-3.37 3.477-4.495 5.81-4.949 10.597-1.688 2.313-1.688 2.313-4 4l-3.125.438L161 235l-.813 2.313c-1.632 3.694-3.53 4.481-7.199 5.964-6.175 1.494-12.691 1.349-18.988.723l-2-2 15-6c-6.822.664-6.822.664-12.375 3-4.741 2.268-9.375 3.05-14.625 3l-2-1v-2h-2v-4c3.048-2.032 3.62-2.24 7.035-2.238l2.428-.039 2.6-.036c7.239-.223 13.902-1.077 20.875-3.062l2.236-.634c6.814-2.071 10.94-4.885 15.826-9.991l2.648-2.543c5.9-5.722 10.836-11.573 15.352-18.457 1.563-2.285 1.563-2.285 3-4z" fill="#F8CFBD"/><path d="m182 96 6 3-2 5 3 2 3-2h4v2l4 1-2 7 2-1-1-4h2v-3h2v2h2v6l1-2h2l-1 6h5v-2h-3l-1-8 3 2 2-3h4l1-2c.625 1.875.625 1.875 1 4l-2 2h-4l-1 4 8-1v5h-3v2l2 1-2 4h-2l-1-3-2 2v-4l-4-1-1 3-1 2 3 1c-2.75.917-4.36 1.109-7.188 1.063L198 127l1 3 3 1 1-3h2v3l2 1v3h2l1-3 3 8-4 1-1-4c-3.118.646-3.118.646-4 3h-2v-5h-5l-.813-2.188C194.409 128.6 192.41 125.085 189 122l1-2 2.938-.438L196 119l2-3h-2l-2 2 .188-2.313c.077-2.73.077-2.73-1.688-4.437L191 110v-1l-3.188.188c-4.015-.198-5.573-.967-8.812-3.188h-2v-3h6l1-2h-6l4-5z" fill="#EBA687"/><path d="M115 136c7.102-.676 7.102-.676 9.617 1.219 5.07 6.531 6.03 14.861 5.781 22.875-.554 4.047-1.567 5.992-4.398 8.906h-2v2c-3.836.446-5.508.355-8.688-1.938-4.712-6.24-6.323-13.321-5.312-21.062 1.103-4.454 2.449-8.173 5-12z" fill="#42352F"/><path d="m216 214 3 1-1 7 2.813-.563C224 221 224 221 227 222l1-3 4-1 1-3 2 2a220.497 220.497 0 0 0 7 3c-3.75 2-3.75 2-6 2v-3l-4 9 2 1v2l-5-1 1 3-3 2 .563 1.875C228 239 228 239 227 241c-2.649.594-5.292.742-8 1v2l2 1-3 1c-.625-1.875-.625-1.875-1-4l2-2c1.245-2.49.777-3.41 0-6h-2l-1 2h-2v3l-3 1-1-4-3 2 1 2h-3v-3l-1.898-.262c-2.47-.424-4.746-.88-7.102-1.738-1.563-2.625-1.563-2.625-2-5l9-1 1 2c3.03.658 3.03.658 6 1l1-2 1-2h-3l-1 2c-1.563-1.813-1.563-1.813-3-4l1-3 2.438.063c2.496.233 2.496.233 3.562-1.063v-2l2-1v-4l2-1z" fill="#E99C79"/><path d="m161 94 4 1-1 1c1.249.482 2.5.96 3.75 1.438l2.11.808c3.179 1.12 5.751 1.754 9.14 1.754 1.671.31 3.339.64 5 1l-1 3-6-1c2.741 3.016 5.213 4.852 9.36 5.195l2.39-.07 2.422-.055L193 108l-1 3 1.438 1.438L196 115l3 1c-1 1.938-1 1.938-3 4-3.39.929-6.758 1.621-10 0l-1 2c-2 2-2 2-4.875 2.375-3.125-.375-3.125-.375-5.375-2-1.986-2.696-2.873-5.16-3.75-8.375h-2l-.7-1.934c-.975-2.47-1.948-4.777-3.3-7.066-2.609-1.211-2.609-1.211-5-1-.625-1.813-.625-1.813-1-4l2-3v-3zm6 10 1 2zm12-6 2 1z" fill="#EEAF93"/><path d="m323 324 2 4h2v4h3l1 5h-3v2h3l1 5 2-3 5 1 2 6 5-2-1-3 2.063-.375c3.365-.716 6.637-1.654 9.937-2.625v3h2c-.875 4.875-.875 4.875-2 6l3 2c.188 3.125.188 3.125 0 6-6.846-.22-12.539-1.732-18.938-4-6.704-2.372-12.88-3.968-20.062-4l2-1-.5-2.313C322 343 322 343 322 340l-5 1-1-6 3.25.563c3.154.367 4.848.482 7.75-.563l-1.438-1.188c-1.915-2.221-2.039-3.972-2.562-6.812l-2-1h2v-2z" fill="#52372A"/><path d="M154 253c3.707 1.488 5.434 3.524 7.813 6.688 3.453 4.458 7.114 8.425 11.187 12.312l1.516 1.59c6.755 6.418 18.584 7.026 27.484 7.41 3.465-.335 6.68-.962 10-2v2a556.32 556.32 0 0 1-5.625 2l-3.164 1.125c-3.263.89-5.848 1.14-9.211.875-2.125-1.438-2.125-1.438-4-3-2.147-.705-2.147-.705-4-1l-1 4c-10.889.625-10.889.625-15-1.688-2.886-3.336-5.551-6.639-8-10.312l-1.875-2.707-2.125-3.106-2.125-3.082c-1.813-3.003-2.91-5.745-3.875-9.105l2-2z" fill="#F4C3AD"/><path d="m166 110 3 2v2h2l.805 1.715 1.07 2.222 1.055 2.215c.938 2.011.938 2.011 3.07 2.848 3 .25 3 .25 6 0l2-2c2.015 8.958 3.306 17.757 3.75 26.938l.135 2.614c.22 5.596-.145 10.896-.885 16.448l-3 1-.227-3.305C183.247 146.017 177.375 127.143 166 112v-2z" fill="#EBA484"/><path d="m257 320 5 5-1 3 3 3 1-2c2.487-.358 4.948-.444 7.457-.559 2.982-.517 4.329-1.41 6.543-3.441l2-3c2.125-.688 2.125-.688 4-1v2h-3l1 5h-4v4l2-1c-1.75 4.875-1.75 4.875-4 6v-2h-2l-1 2h-3l-1 2-2.11-.875c-4.05-1.577-8.194-2.83-12.343-4.125-2.547-1-2.547-1-3.547-3-.375-3.375-.375-3.375 0-7 2.5-2.438 2.5-2.438 5-4z" fill="#56382A"/><path d="M224 248h2l2 6 2-3c.39 1.433.762 2.872 1.125 4.313l.633 2.425C232 260 232 260 230 263h-4l2 1c.407 2.322.744 4.657 1 7l-4 1v2l-4 1v4l-9 1 1-11h3c.043 1.666.04 3.334 0 5l-1 1 2 1v-8h6v-3h-2l-.438-3.313c-.445-3.618-.445-3.618-1.562-6.687-2-1.209-2-1.209-4-2 2.49-.687 4.379-1 7-1l2-4z" fill="#EBA383"/><path d="M97 153h1l.332 1.793.48 2.394.458 2.356c.634 2.531.634 2.531 2.175 4.781 1.914 3.294 2.763 6.627 3.618 10.301l.512 2.123A239.225 239.225 0 0 1 109 194l-3.375-.063c-3.457-.2-3.457-.2-5.625 1.063l-1-9-3-1 1-1c.088-2.292.107-4.586.098-6.879l-.005-2.08a2050.78 2050.78 0 0 0-.03-6.603A4240.961 4240.961 0 0 0 97 153z" fill="#EAA382"/><path d="m248 249 1 2h5l-2 1c.472 4.248 2.967 6.2 6 9l-1 3 2 1-2 1 .5 2.938C258 272 258 272 258 273c-2.693 1.939-4.02 1.998-7.375 1.688-4.958-2.309-7.336-5.774-9.625-10.688v-4l9 1 1-3-2-1v-3h-2l-1-3h2v-2z" fill="#E79772"/><path d="m212 245 2 1v3l2.313-.5c2.99-.557 4.924-.882 7.687.5l-2 4h-6l2.5 2.063c2.5 2.937 2.5 2.937 2.813 6.75L221 265h2v3l-5 1-1 7-3-1 2-6h-3l-.84-3.395-1.097-4.418-.553-2.236c-.752-3.022-1.525-5.996-2.51-8.951h3l-5-2 6-3z" fill="#EEAF93"/><path d="m141 101 3 1v7h11c-2.043 4.087-3.327 5.28-6.875 7.938-2.86 2.147-5.038 3.946-7.195 6.816L139 126h-4c.276-6.856 1.305-11.226 5-17 .76-2.27.76-2.27 1-4l-2-1 2-3z" fill="#F2BBA3"/><path d="M154 253c3.707 1.488 5.434 3.524 7.813 6.688 2.539 3.3 5.082 6.282 8.125 9.125 2.673 2.564 3.945 4.33 4.062 8.187l-2.875-.625L168 276l-2 2a149.427 149.427 0 0 1-8.125-10.938l-2.07-3.027c-1.767-2.972-2.848-5.723-3.805-9.035l2-2z" fill="#F0B69C"/><path d="M171 108h2l-1 4 2.313-1.438C177 109 177 109 180 108v2l1.938.375L184 111l1 2-3 1h3l2 6c-2.26 2.782-3.406 3.9-7 4.5-3.73-.622-4.772-1.476-7-4.5-1.25-3.25-1.25-3.25-2-6h-2l-1-4 3 1v-3z" fill="#F0B59A"/><path d="M267 261c3.44 1.385 4.705 2.612 6.188 6 2.042 4.925 2.591 9.707 2.812 15l-8 1c-1.46-2.647-2-3.894-2-7l-4 2c-3-4.75-3-4.75-3-7l3 1c2.19-1.372 2.19-1.372 4-3l2 1v-2l-2-1 1-6z" fill="#E07F53"/><path d="M245 189h1l.244 2.184c.37 3.293.75 6.586 1.131 9.879l.383 3.435c.664 5.694 1.425 11.058 3.242 16.502l-3-1-3 1v-5l-2 1 .625 2.375L244 222l-2 2v-2l-2-1 1-1-2-1c1.25-3.653 1.671-4.78 5-7-1.309-3.122-1.309-3.122-4-5v-5h2v2h2l-1-5h-2c-.188-2.375-.188-2.375 0-5l3-2 1-3z" fill="#E58F67"/><path d="m125 255 .516 3.664c1.59 10.891 3.206 21.872 7.668 32.031C134 293 134 293 133 296a978.673 978.673 0 0 1-8-16l-1.387-2.832c-2.932-6.574-3.389-13.02-3.613-20.168 3.875-2 3.875-2 5-2z" fill="#F2BBA3"/><path d="M233 250c2.91 1.455 3.326 3.51 4.688 6.438 2.552 5.275 5.487 9.913 8.992 14.601C248 273 248 273 248 275h2c1.576 1.977 2.955 4.056 4.367 6.152 1.847 2.09 2.915 2.477 5.633 2.848-1 3-1 3-3.875 4.625C253 290 253 290 250 291l.75-1.563c.391-3.812-1.77-6.339-3.75-9.437-3.84-6.184-7.173-12.295-10-19-1.085-2.386-2.173-4.77-3.266-7.152C233 252 233 252 233 250z" fill="#DF7C4F"/><path d="M171 287c1.748.363 3.498.717 5.25 1.063l2.703.535L181 289c-6.075 6.075-20.665 8.109-29 9-2.187-.98-2.187-.98-4-2 2.602-1.482 5.207-2.961 7.813-4.438l2.236-1.275 2.158-1.22 1.984-1.127c3.432-1.783 5.195-2.002 8.809-.94z" fill="#E2855B"/><path d="M117 115v6l-3 2 .625 1.813C115 127 115 127 113 130a570.475 570.475 0 0 0-2 4c-3.132 5.65-6.132 10.705-11 15-.451-5.302 1.04-9.017 3.438-13.625l1.068-2.102c3.486-6.641 7.75-12.475 12.494-18.273z" fill="#ECA889"/><path d="M201 149c3.335 1.112 4.637 2.474 7 5l2.75-1.063c3.128-.902 4.302-1.07 7.25.063l1-3c1.938-.813 1.938-.813 4-1 2.222 2.222 2.926 4.085 4 7h2l-.938 1.813c-1.164 2.277-1.164 2.277-2.062 5.187h2v2c-3-1-3-1-5-3l-.5-2.063L222 158l-2-1 2-3h-2v2l-3 1v-2l-2.375.563C212 156 212 156 210 155v2h-4v3h-2c-1.273-3.648-2.328-7.194-3-11z" fill="#EDAA8C"/><path d="m229 131 3 2-2 3c.317 3.64.317 3.64 1 7l6 1c1.125 3.75 1.125 3.75 0 6h-2l-2-2-2 2v-2l-4-1v3h-2a212.772 212.772 0 0 1-1.188-4.813l-.667-2.707C223 140 223 140 224.449 138.176L226 137l-1-3h2v-2l2-1z" fill="#E18156"/><path d="m353 348 2 2c2.57.648 2.57.648 5 1v6c-7.602-.33-13.973-2.128-21-5 3.9-3.9 8.676-5.977 14-4z" fill="#683F2D"/><path d="m211 281 5 1-1 3 2 2-1.953.06c-2.974.096-5.948.206-8.922.315l-3.07.094c-4.908.189-9.539.542-14.336 1.625-4.492.989-7.816.83-12.344.031l-3.664-.617L170 288l1-2 36-1v-2h4v-2z" fill="#DF7C4E"/><path d="m314 344 2 1-1 4 3 1c-17.149 8.34-17.149 8.34-26 7l4-4 4 3v-2l2-1c.59-1.946.59-1.946 1-4l1-2h2l1-2 3 2h2v2h2l-1-3 1-2z" fill="#58392B"/><path d="m162 238 .375 2.375c.416 2.766.416 2.766 2.625 4.625-6.408 2.382-12.18 2.044-18.938 1.625l-3.228-.172c-2.612-.14-5.223-.292-7.834-.453v-1l2.895-.262C145.7 243.89 155.12 238 162 238z" fill="#ECA98A"/><path d="m127 111 2 1c-.813 2.438-.813 2.438-2 5l-3 1-1 3-2.313 1.813c-2.972 2.419-4.693 4.938-6.687 8.187l-2-2 2-2c-.32-2.603-.32-2.603-1-5l3-2c1.205-2.552 1.205-2.552 2-5h3c3.204-1.715 3.204-1.715 6-4z" fill="#EFB499"/><path d="m173 222 2 3 6-1 1 2h-4l1 5h-2l1 2h4v2c-1.77.027-3.542.046-5.313.063l-2.988.035C171 235 171 235 168 234l.875-1.563c1.41-3.056 2.21-6.202 3.125-9.437l1-1z" fill="#EDAD90"/><path d="m106 128 2 1-1.496 2.816-1.942 3.746-.986 1.846c-2.166 4.221-2.983 7.84-3.576 12.592l-2 3c-.368 2.71-.368 2.71-.414 5.762l-.117 3.388-.094 3.537-.117 3.573c-.095 2.913-.18 5.826-.258 8.74h-1c-.118-4.437-.188-8.874-.25-13.313l-.102-3.767c-.086-8.197 1.098-14.426 4.352-21.92l1-3.375c1.172-3.076 2.833-5.17 5-7.625z" fill="#E07D50"/><path d="M116 246h3l1 5 2-1v-3h4c-.254 1.482-.53 2.96-.813 4.438l-.457 2.496L124 256l-3 1v11c-1.903-3.806-2.758-6.865-3.625-11-.26-1.217-.52-2.434-.79-3.688C116 250 116 250 116 246z" fill="#EDAC8E"/><path d="m166 110 3 2v2h2l.805 1.715 1.07 2.222 1.055 2.215c.938 2.011.938 2.011 3.07 2.848 3 .25 3 .25 6 0l2-2v9l-1-3h-2l1 5-3-1-1-3-1.871-.355C175 127 175 127 173.402 124.637l-1.464-2.95c-1.415-2.81-2.724-5.404-4.622-7.917C166 112 166 112 166 110z" fill="#EAA281"/><path d="M245 163h1c.848 7.693 1.122 15.263 1 23h-1v-9h-2l-1 4h-2c-.37-4.554-.37-4.554 1.5-6.813L244 173l-1.813-.188c-2.187-.812-2.187-.812-4-3.187C237 167 237 167 238 164l3 1v2l3 1 1-5z" fill="#E18156"/><path d="M171 108h2l-1 4 2.313-1.438C177 109 177 109 180 108v2l1.938.375L184 111l1 2-3 1 3 1h-4l-2-3v4l-7 1-1-3h-2l-1-4 3 1v-3z" fill="#F2BCA4"/><path d="M224 145h1v5h2l1 4 7-2 2 3c-3.086 2.269-4.422 3.055-8.313 2.688L226 157l-1-6-3-1c.875-3.875.875-3.875 2-5zm2 1 4 2v3l-3-1c-.688-2.063-.688-2.063-1-4zm4 12 3 1-1 2-2-3z" fill="#E6936E"/><path d="m177 127 4 2v2l2 1-1-5h2c2.13 2.13 2.476 3.04 3.188 5.875l.542 2.055c.3 2.298-.036 3.876-.73 6.07v-2h-4v-2h-2c-4-6.625-4-6.625-4-10z" fill="#EEAF92"/><path d="M181 289c-6.144 6.144-18.702 6.864-27 8 8.06-6.058 16.737-10.509 27-8z" fill="#E99D7B"/><path d="M186 281c2.375-.125 2.375-.125 5 0l2 2c6.488 1.795 11.715.012 18-2v2h-4v2l2 1c-3.604.087-7.208.14-10.813.188l-3.103.076-2.979.029-2.745.048c-2.784-.402-3.636-1.178-5.36-3.341h2v-2z" fill="#EEAF94"/><path d="M290 341h2v3h2v2l-4 2v3l-5 1v-2l-4 1-1-5 2 1 2-2 6-2v-2z" fill="#4B3429"/><path d="m161 94 4 1-1 1 6 2-1 4h-3l-1 3-5-1c-.625-1.813-.625-1.813-1-4l2-3v-3z" fill="#F0B59B"/><path d="M301 316v2h-2l1 4h-2v5c-2.354 1.43-3.48 2.087-6.25 1.625L290 328l1-3h2v-2h2l-1-3v-3c2.49-.687 4.379-1 7-1z" fill="#52372A"/><path d="M200 151c2.805 2.262 3.91 3.4 4.454 7.024l-.063 3.492-.04 3.789-.101 3.945-.055 3.992A901.557 901.557 0 0 1 204 183l-3-1 .035-3.988c.088-13.533.088-13.533-1.035-27.012z" fill="#E79773"/><path d="M232 129c3.056 1.054 3.982 1.972 5.75 4.75 1.291 3.358 1.504 5.69 1.25 9.25l-6-1v-5l-2-1 2-1c.652-2.025.652-2.025 1-4h-2v-2z" fill="#E48D66"/><path d="m294 345 1 2h4l-1 2-5-1v2l2 1-1 3-3-2 1 3-2 1c-1.945-.777-1.945-.777-4.125-1.938l-2.195-1.152L282 352l1-2h2v2l5-1-1-4 5-2z" fill="#613C2C"/><path d="M148 235c-3.933 4.708-10.289 6.348-16 8-2.717.11-4.379-.208-7-1v-1l1.941-.55c4.053-1.179 7.987-2.334 11.809-4.137 3.363-1.358 5.664-1.575 9.25-1.313z" fill="#EDA98B"/><path d="m222 162 2 1v3h3v2h-2c-.151 3.629-.151 3.629 1 7h-2c-1.625 1.458-1.625 1.458-3 3l-3-3 1-2h1l-1-1a99.984 99.984 0 0 1 0-5h4l-1-5z" fill="#ECA98B"/><path d="m215 202 1 2c2.025.652 2.025.652 4 1l1 7 5-1 1 2h-3l-1 2c-2.25.25-2.25.25-5 0-2.313-2-2.313-2-4-4l1-3 3-1-3-2v-3z" fill="#EDAB8D"/><path d="M96 200c2.476 2.476 2.922 4.7 4 8l2 3v3h2a291.26 291.26 0 0 1 2.5 4.188l1.406 2.355c1.201 2.698 1.301 4.538 1.094 7.457l-2-2v-3h-2a935.14 935.14 0 0 1-3.938-7.563l-1.13-2.134c-2.307-4.51-3.514-8.248-3.932-13.303z" fill="#E99D7A"/><path d="m113 236 3 1v2h2l1 3h-4v2l7 1 1 6h-3l-1-5-4 1-.621-1.68-.817-2.195-.808-2.18c-.733-1.981-.733-1.981-1.754-3.945l2-1z" fill="#E38A61"/><path d="M219 105c7.926 6.167 7.926 6.167 9 11l-1 2h-4v-3l-2-1v-4l-2-1v-4z" fill="#E48D65"/><path d="M212 101c2.432.851 4.697 1.848 7 3l-1 2-2.438.375c-2.722.35-2.722.35-3.875 2.688L211 111l-3-3 2-1v-5l2-1z" fill="#E99C79"/><path d="M236 259c2.5 2.173 3.61 3.683 4 7-.438 2.75-.438 2.75-1 5l-1-4-5-1-1-5 4-2z" fill="#E58F68"/><path d="m213 100-3 3c-5.75-1.875-5.75-1.875-8-3l-1 2-3-2v-2c5.088-1.832 10.442-.735 15 2z" fill="#E6946E"/><path d="m151.75 296.938 2.422.027L156 297l1 3c-1.936.363-3.874.715-5.813 1.063l-3.269.597C145 302 145 302 142 301l1-3c2.891-1.12 5.678-1.108 8.75-1.063z" fill="#DF7C50"/><path d="M102 193c3.625.375 3.625.375 7 1v13h-1v-11l-2.875 1.438L100 200c-.125-2.375-.125-2.375 0-5l2-2z" fill="#F4C2AC"/><path d="m174 93 2 2c-3.092 2.062-3.608 2.224-7.063 2.063-3.723-.362-3.723-.362-5.937.937v-3l-3-2c4.96-.77 9.063-1.293 14 0z" fill="#E79975"/><path d="M166 267c3.787 1.488 5.774 3.62 8 7l-1 3-5-1v-2h-2v-7z" fill="#EFB398"/><path d="M229 264h2l.813 1.875c1.143 2.425 1.143 2.425 4.187 4.125.188 2.625.188 2.625 0 5l2 1-3 1-2-5h-3c-1-1-1-1-1.063-4.563L229 264z" fill="#E48B63"/><path d="M97 153h1l.332 1.793c.75 3.742 1.374 6.717 3.356 10.02 1.312 2.187 1.312 2.187 1 4.5L102 171l-1-2-3-1c-1.095-3.285-1.1-5.737-1.063-9.188l.028-3.292L97 153z" fill="#EDAA8C"/><path d="m207 140 2 4h3l1-2 2 3h-3l2 5-3 1c-2.613-1.306-2.972-2.284-4-5-.125-3.25-.125-3.25 0-6z" fill="#ECA98A"/><path d="m239 277 2 3 2 2 2 3-2 4-1-2c-2.025-.652-2.025-.652-4-1-.125-6.75-.125-6.75 1-9z" fill="#E69570"/><path d="m211 279 1 2a556.32 556.32 0 0 1-5.625 2l-3.164 1.125c-3.229.88-5.883 1.035-9.211.875v-3l17-3z" fill="#F1B89F"/><path d="m162 274 2.688 2.188 1.699 1.37C168 279 168 279 170 281.75c4.989 3.742 10.925 3.16 17 3.25v1c-13.828 1.527-13.828 1.527-19.066-2.156C162 277.214 162 277.214 162 274z" fill="#E89A76"/><path d="M243 274c3.867 3.222 4.88 6.15 6 11h-2v-3l-5 1c-2-3-2-3-2-6h2v2h2l-1-5z" fill="#E48B63"/><path d="m228 211 3 1v2h8l1 3c-2.375.625-2.375.625-5 1l-2-2v3h-3l-2-8z" fill="#ECA889"/><path d="m162 238 .375 2.375c.416 2.766.416 2.766 2.625 4.625l-5 1-2-3h-2l-1 2v-2l-3-1c1.478-.669 2.958-1.335 4.438-2l2.496-1.125C161 238 161 238 162 238z" fill="#EEAE91"/><path d="M206 144c.93 2.606 1.15 3.642.063 6.25L205 152l-4-3-1 3c-1-3-1-3-.25-5.125 1.68-2.52 3.277-2.875 6.25-2.875z" fill="#ECA686"/><path d="M229 169c2 3 2 3 3 6l-2 1c-1.134 2.017-1.134 2.017-2 4l-4-2c1.875-4.875 1.875-4.875 3-6l2-3z" fill="#E79773"/><path d="M302 350h4l-1.063 1.875L304 354l1 2c-3.015 1.005-5.042 1.103-8.188 1.063l-2.73-.028L292 357l4-4 4 3v-2l2-1v-3z" fill="#70422E"/><path d="M238 243c2.51 1.255 2.871 2.5 4 5l3-1-2 4h-2v2h-2v-2l-3 1 2-9z" fill="#E6946E"/><path d="M159 131c-2 2-2 2-4.375 2.625-3.928 2.058-4.97 5.398-6.625 9.375h-2c.446-5.055 2.647-7.402 6-11 2.463-1.231 4.28-1.072 7-1z" fill="#63514A"/><path d="M215 133c2.375.188 2.375.188 5 1 1.313 2.563 1.313 2.563 2 5h-2l-1 4-1.375-2.438c-1.372-2.65-1.372-2.65-3.625-3.562l1-4z" fill="#EAA180"/><path d="M224 242c3.848 2.482 3.848 2.482 4.625 5.125L229 249l2 1a158.623 158.623 0 0 1-3 5h-1l-.375-3.438L226 248l-2-1v-5z" fill="#E79874"/><path d="M265 254h2l2 5-4 2v-2h-6l-1-2h4l1-2 1 1 1-2z" fill="#E18055"/><path d="m207 215 2 4h3l1-2 2 3h-3l1 5c-1.875-.313-1.875-.313-4-1-2.29-3.435-2.178-4.985-2-9z" fill="#ECA98B"/><path d="M235 156h2v6l-4 2-4-4 3-1 1.563-1.563L235 156z" fill="#E89B79"/><path d="m191 108 2 1-1 2 3 3-1 2-3-1-1-2-1 2h-2l-1-5c2.375-1.063 2.375-1.063 5-2z" fill="#F1B89E"/><path d="M228 161c3.786.54 5.554 2.117 8 5v2h-3l-2 4c-.687-2.49-1-4.379-1-7-.95-2.15-.95-2.15-2-4z" fill="#ECA98A"/><path d="m228 117 2 1v4h2c-.524 3.776-1.327 6.224-4 9h-3v-2l2-1c.603-3.741 1-7.217 1-11z" fill="#E6926C"/><path d="M248 268c2.938.75 2.938.75 6 2 .875 2.125.875 2.125 1 4-2.667 1.333-4.167.671-7 0v-6z" fill="#E99F7E"/><path d="M183 279v3l-5 1 3 2h-6l1-6c3.01-.934 3.867-1.044 7 0z" fill="#F1BAA2"/><path d="M116 246h3l1 5h3v2l-5 1c-1.765-3.088-2-4.233-2-8z" fill="#EAA282"/><path d="M188 194h2c-1.468 6.485-1.468 6.485-4 8.938-2 1.062-2 1.062-4 1.062 1.654-3.583 3.68-6.81 6-10z" fill="#F3C1AA"/><path d="M186 292v2c-1.913.533-3.83 1.05-5.75 1.563l-3.234.878c-2.86.53-4.332.543-7.016-.441a886.164 886.164 0 0 1 5.75-2l3.234-1.125C182 292 182 292 186 292z" fill="#E18257"/><path d="M212 280c2.375-.125 2.375-.125 5 0l2 2c-.375 2.625-.375 2.625-1 5l-4-2 1-2-3-3z" fill="#E48E66"/><path d="m210 281 1 2h-4v2l2 1h-11c2.35-2.35 3.957-2.731 7.125-3.625.91-.26 1.82-.52 2.758-.79L210 281z" fill="#E89B79"/><path d="m230 255 2 3c-.875 2.688-.875 2.688-2 5h-6l1-4 1.938-.313L229 258l1-3z" fill="#EAA382"/><path d="m183 219 3 1c-3.521 4.593-7.577 5.12-13 6l1-4 3 1 3-2 3-2z" fill="#E99D7A"/><path d="M267 326v3h-2l-1 4-.313-1.938L263 329l-3-1c1-2 1-2 2.938-2.688C265 325 265 325 267 326z" fill="#3F2F28"/><path d="m321 300 5 1c-.25 1.875-.25 1.875-1 4-2.063 1.25-2.063 1.25-4 2-.934-3.01-1.044-3.867 0-7z" fill="#453128"/><path d="m241 267-1 7-1-2c-2.017-1.134-2.017-1.134-4-2v-3c3.75-1.125 3.75-1.125 6 0z" fill="#EBA382"/><path d="m241 260 5 1 1 4h-2l-2 2c-2-3-2-3-2-7z" fill="#EAA181"/><path d="m174 245 2.875.563L179 246v1c-1.73.027-3.458.047-5.188.063l-2.917.035c-2.75-.093-5.22-.477-7.895-1.098v-1c4.012-1.062 6.955-.843 11 0z" fill="#E79773"/><path d="M158 242c2 2 2 2 2 4-2.709 1.354-5.01 1.065-8 1v-4c2.875-.625 2.875-.625 6-1z" fill="#EAA281"/><path d="M244 177h2v9l-3-1c-.625-2.875-.625-2.875-1-6l2-2z" fill="#E3875D"/><path d="m222 137 3 1-.438 1.688c-.59 2.426-1.085 4.861-1.562 7.312-2.565-2.565-2.54-4.477-3-8h2v-2z" fill="#E79874"/><path d="m135 120 5 1-1 5h-4v-6z" fill="#EFB196"/><path d="m155 95-1 4-5 1-2-3c2.906-1.257 4.796-2 8-2z" fill="#E89975"/><path d="m340 325 2 1-2 7-2-4h-3v-2c2.375-1.063 2.375-1.063 5-2z" fill="#3D2E27"/><path d="m253 258 3 3-3 1-1 2 2 1h-4l-1-4 4-3z" fill="#EAA07F"/><path d="M250 226v3zm-4 3h2v2l2 1v5l-3-1-1-7z" fill="#E48C64"/><path d="M239 202h1l1 7h2l-1 4-4-1 1-10z" fill="#EBA585"/><path d="M127 284c4 2 4 2 5.813 5.438C134 293 134 293 133 296l-6-12z" fill="#EEB094"/><path d="M248 274h7v7a105.022 105.022 0 0 1-5-4v-2l-2-1z" fill="#E5926C"/><path d="M244 207h4v7l-4-2v-5z" fill="#E38960"/><path d="m224 180 1.875.563c2.167.674 2.167.674 4.125-.563l-1 4-7 1v-3h2v-2z" fill="#E79773"/><path d="m234 137 1 2h4v4l-6-1 1-5z" fill="#E69570"/><path d="m122 111 4 2-2.375 1.375c-2.662 1.51-2.662 1.51-4.625 3.625l-1-4 4-3z" fill="#EBA586"/><path d="M187 101c2.625-.188 2.625-.188 5 0l-2 6-5-3 2-3z" fill="#E79873"/><path d="m331 299-4 4c-2.468-1.152-4.048-2.048-6-4 6.625-1.125 6.625-1.125 10 0z" fill="#633D2C"/><path d="m217 185 1 5h-6c.375-1.938.375-1.938 1-4 2-1 2-1 4-1z" fill="#EAA180"/><path d="M186 151h3c.125 6.75.125 6.75-1 9h-2v-9z" fill="#EFB297"/><path d="M359 331h1v10h-1v-5l-2 3c-.688-1.75-.688-1.75-1-4 1.375-2.25 1.375-2.25 3-4z" fill="#51362A"/><path d="m356 298 4 1-1 5-5-2 2-1v-3z" fill="#3D2E27"/><path d="m224 255 1.875.563c2.167.674 2.167.674 4.125-.563l-1 4c-4.75 1.125-4.75 1.125-7 0v-2h2v-2z" fill="#E79773"/><path d="M207 108c2 3 2 3 3 6l-1 2h3v2h-5l1-6h-2l1-4z" fill="#E89C7A"/><path d="m347 350 5 1v4l-5-1v-4z" fill="#58392B"/><path d="m257 320 5 5c-3.623 1.208-4.641.543-8-1l1-3 2-1z" fill="#5F3C2C"/><path d="m276 311 1 3 3 1c-3 2-3 2-5.188 1.625L273 316v-3l3-2z" fill="#5D3B2B"/><path d="M301 303h6v2l2 2h-8v-4z" fill="#473228"/><path d="M270 266h2c1.858 3.135 2.201 5.375 2 9l-2-1v-2l-3-2 1-4z" fill="#E2865C"/><path d="m245 264 2 1c.594 2.649.742 5.292 1 8-2.063-1.688-2.063-1.688-4-4 .25-2.75.25-2.75 1-5z" fill="#E58F68"/><path d="M244 225h2v3l2 1h-2l1 6c-2-1-2-1-2.668-2.813l-.52-2.187-.542-2.188L243 226l1-1z" fill="#E79874"/><path d="M99 176h5l1 2h-3l-1 4-2-1v-5z" fill="#ECA98B"/><path d="m138 101 3 1a105.022 105.022 0 0 1-4 5h-2c.375-2.438.375-2.438 1-5l2-1z" fill="#EFB296"/><path d="m267 316 1 3-5 4-3-4 7-3z" fill="#5C3A2B"/><path d="m212 281 4 2-1 2 2 2-7-1 2-5z" fill="#DF7D50"/><path d="M274 272h1l1 10h-2l-3-6 3-1v-3z" fill="#DE794B"/><path d="M265 263h2l-1 4 3 1-1 2c-1.938-.313-1.938-.313-4-1l-1-3h2v-3z" fill="#E3895F"/><path d="m113 236 3 1v2h2v2h-5l-2-4 2-1z" fill="#E69570"/><path d="m254 229 2 1c.625 3.063.625 3.063 1 6l-3 1-1 2 1-10z" fill="#E3885F"/><path d="m140 110 3 1v4h-5c.875-3.875.875-3.875 2-5z" fill="#EFB298"/><path d="M340 350h6l1 4-8-2 1-2z" fill="#834A30"/><path d="M324 345h3v3l2 1h-8l2-1 1-3z" fill="#673F2D"/><path d="M344 297c-2.313 2.063-2.313 2.063-5 4l-3-1 1-3c2.944-1.178 3.9-1.033 7 0z" fill="#423028"/><path d="m216 257-1 4h-2l-1 4-1-7c2-1 2-1 5-1z" fill="#F1B9A0"/><path d="m231 189 3 1v2h3v3h-4l-2-6z" fill="#EBA383"/><path d="m211 281 2 3-2 1 1 2h-5v-4h4v-2z" fill="#E48D65"/><path d="M258 279c3 2 3 2 3.688 4.125L262 285l-4 1 1-2h-3v-2h2v-3z" fill="#E5916A"/><path d="m187 205 4 2-5 5-2-1 3-6z" fill="#ECA88A"/><path d="M98 201h3l-1 7c-1.563-1.813-1.563-1.813-3-4l1-3z" fill="#F4C4AF"/><path d="M215 133h3l1 5-5-1 1-4z" fill="#ECA889"/><path d="M217 110v4l-5 1c.375-1.938.375-1.938 1-4 2-1 2-1 4-1z" fill="#E6946F"/><path d="m208 98 5 2-3 3-3-1 1-4z" fill="#E48C64"/><path d="M245 275h4l2 3-4 2-2-5z" fill="#E18055"/><path d="M123 275h5v4l-3 1-2-5z" fill="#EDAD90"/><path d="m260 260 7 1v2h-2l-1 3v-2h-2v-3l-2-1z" fill="#E79772"/><path d="m125 257 1 6h-3v-3h-2v-2c2-1 2-1 4-1z" fill="#EEB093"/><path d="M134 244v2c-2.313.688-2.313.688-5 1-1.813-1.438-1.813-1.438-3-3 5.75-1.125 5.75-1.125 8 0z" fill="#ECA686"/><path d="m188 213 3 1v5h-5l2-6z" fill="#EAA07E"/><path d="M234 151c3.716-.2 4.772-.152 8 2l-1 3-2-1v-2l-3 1-2-3z" fill="#E48D65"/><path d="m107 136 1 3-5 4-2-2 1-2h4l1-3z" fill="#E99D7B"/></svg>